<svg width="180" height="20" viewBox="0 0 180 20" fill="none" xmlns="http://www.w3.org/2000/svg">
<path d="M116.171 0.000562906H118.449C118.521 0.000562906 118.575 0.0363588 118.575 0.126426V2.43468C118.575 2.50685 118.521 2.56055 118.449 2.56055H116.171C116.099 2.56055 116.046 2.50685 116.046 2.43468V0.126426C116.046 0.0548341 116.099 0.000562906 116.171 0.000562906Z" fill="#2F3337"/>
<path d="M125.655 8.16926C125.101 8.11153 124.585 8.05783 124.187 7.97816C123.434 7.83382 123.201 7.54572 123.201 7.09539C123.201 6.41065 123.829 5.94241 125.03 5.94241C126.268 5.94241 127.379 6.39275 128.204 7.09539C128.258 7.14966 128.33 7.14966 128.384 7.07749L129.729 5.49208C129.783 5.43781 129.783 5.36621 129.711 5.31194C129.03 4.69937 127.667 3.83507 125.335 3.83507C122.716 3.83507 120.959 5.07754 120.959 7.27552C120.959 8.87883 121.82 9.63516 122.968 10.0312C123.728 10.2858 124.482 10.3505 125.208 10.4123C125.664 10.451 126.108 10.4885 126.537 10.5716C127.379 10.716 127.648 11.0583 127.648 11.5987C127.648 12.3372 126.985 12.7875 125.676 12.7875C124.151 12.7875 122.985 12.3014 122.071 11.4186C122.017 11.3643 121.928 11.3464 121.874 11.4186L120.564 13.0034C120.561 13.0133 120.557 13.0231 120.554 13.0323C120.537 13.0762 120.521 13.1183 120.564 13.1478C121.228 13.8325 122.645 14.877 125.461 14.877C128.725 14.877 130.016 13.2921 130.016 11.3822C129.944 9.36496 128.581 8.62653 127.398 8.39212C126.834 8.29166 126.225 8.22873 125.655 8.16926Z" fill="#2F3337"/>
<path d="M118.405 4.06659H116.236C116.164 4.06659 116.11 4.12086 116.11 4.19245L116.104 14.5011C116.104 14.5733 116.158 14.627 116.23 14.627H118.399C118.47 14.627 118.525 14.5733 118.525 14.5011L118.53 4.19245C118.53 4.12086 118.495 4.06659 118.405 4.06659Z" fill="#2F3337"/>
<path fill-rule="evenodd" clip-rule="evenodd" d="M137.569 12.5731C135.524 12.5731 134.484 11.1142 134.484 9.31281C134.484 7.52937 135.524 6.08829 137.569 6.08829C139.487 6.08829 140.635 7.54726 140.635 9.31281C140.635 11.1142 139.487 12.5731 137.569 12.5731ZM137.963 3.80082C136.475 3.80082 135.345 4.30485 134.573 5.13335V4.17841C134.573 4.10624 134.52 4.05254 134.448 4.05254H132.403C132.331 4.05254 132.277 4.10624 132.277 4.17841V18.9679C132.277 19.0401 132.331 19.0938 132.403 19.0938H134.555C134.627 19.0938 134.681 19.0401 134.681 18.9679V13.6181C135.452 14.3745 136.528 14.8069 137.981 14.8069C141.119 14.8069 143.2 12.393 143.2 9.27644C143.182 6.23263 141.119 3.80082 137.963 3.80082Z" fill="#2F3337"/>
<path d="M150.477 3.8368C150.979 3.8368 151.463 3.94477 151.822 4.07121C151.894 4.0891 151.894 4.1428 151.894 4.25134L151.302 6.46664C151.284 6.53881 151.23 6.55671 151.159 6.53881C150.781 6.41295 150.387 6.34078 150.065 6.34078C148.54 6.34078 147.625 7.60172 147.625 9.06069V14.5005C147.625 14.5727 147.571 14.627 147.5 14.627H145.348C145.276 14.627 145.222 14.5727 145.222 14.5005V4.19591C145.222 4.12374 145.276 4.06947 145.348 4.06947H147.392C147.464 4.06947 147.518 4.12374 147.518 4.19591V5.4938C148.289 4.21497 149.473 3.8368 150.477 3.8368Z" fill="#2F3337"/>
<path fill-rule="evenodd" clip-rule="evenodd" d="M174.691 12.6907C172.772 12.6907 171.624 11.2317 171.624 9.43038C171.624 7.64694 172.772 6.09617 174.691 6.09617C176.736 6.09617 177.776 7.66484 177.776 9.43038C177.776 11.2317 176.736 12.6907 174.691 12.6907ZM179.856 4.07601H177.812C177.74 4.07601 177.686 4.13028 177.686 4.20245V5.14123C176.897 4.31273 175.785 3.80812 174.296 3.80812C171.157 3.80812 169.077 6.33173 169.077 9.41249C169.077 12.5106 171.157 14.9424 174.296 14.9424C175.731 14.9424 176.825 14.492 177.597 13.7536V14.7622C177.597 16.6179 176.18 17.3384 174.889 17.3384C173.669 17.3384 172.539 16.7437 171.929 15.5549C171.911 15.4828 171.804 15.447 171.75 15.4828L169.741 16.4013C169.687 16.4192 169.669 16.5093 169.687 16.5457C170.243 17.8603 171.767 19.5 174.889 19.5C178.26 19.5 180 17.3921 180 14.7622V4.20245C179.982 4.13028 179.928 4.07601 179.856 4.07601Z" fill="#2F3337"/>
<path d="M153.435 4.08953H155.587C155.659 4.08953 155.713 4.1438 155.713 4.21539V14.5298C155.713 14.602 155.659 14.6562 155.587 14.6562H153.435C153.363 14.6562 153.31 14.602 153.31 14.5298V4.21539C153.31 4.1438 153.363 4.08953 153.435 4.08953Z" fill="#2F3337"/>
<path d="M163.553 3.8697C162.231 3.8697 161.175 4.29232 160.417 5.03133V4.20745C160.417 4.13701 160.364 4.08389 160.294 4.08389H158.286C158.215 4.08389 158.162 4.13701 158.162 4.20745V14.5294C158.162 14.5998 158.215 14.6523 158.286 14.6523H160.399C160.47 14.6523 160.523 14.5998 160.523 14.5294V8.73851C160.523 7.34825 161.263 6.08731 162.795 6.08731C164.081 6.08731 164.945 7.01396 164.945 8.56242V14.5294C164.945 14.5998 164.997 14.6523 165.068 14.6523H167.182C167.252 14.6523 167.305 14.5998 167.305 14.5294V7.9816C167.288 5.83443 166.336 3.8697 163.553 3.8697Z" fill="#2F3337"/>
<path d="M153.388 0.00642228H155.656C155.728 0.00642228 155.782 0.0422182 155.782 0.132285V2.44054C155.782 2.51271 155.728 2.56641 155.656 2.56641H153.388C153.316 2.56641 153.262 2.51271 153.262 2.44054V0.132285C153.262 0.0606935 153.316 0.00642228 153.388 0.00642228Z" fill="#2F3337"/>
<path d="M101.242 5.18359H101.259H103.145H103.163C103.486 5.18359 103.72 4.94919 103.72 4.62414V0.565923C103.72 0.24145 103.486 0.00646782 103.163 0.00646782H103.145H101.259H101.242C100.919 0.00646782 100.685 0.24145 100.685 0.565923V4.62414C100.667 4.96709 100.9 5.18359 101.242 5.18359Z" fill="#FD5D3E"/>
<path d="M98.7057 7.34896L98.7235 7.33107L99.891 5.85189L99.9088 5.83399C100.107 5.58111 100.07 5.25664 99.8191 5.04013L96.6581 2.51478C96.4069 2.31617 96.0839 2.35255 95.8683 2.60485L95.8499 2.62333L94.683 4.10193L94.6646 4.1204C94.4675 4.37271 94.5031 4.69718 94.7549 4.91369L97.9153 7.43903C98.1849 7.63764 98.5079 7.60127 98.7057 7.34896Z" fill="#FD5D3E"/>
<path d="M98.8154 10.6677V10.6498L98.4021 8.8098V8.7919C98.3302 8.46685 98.0612 8.30462 97.7376 8.37679L93.8046 9.27861C93.4815 9.35078 93.32 9.62156 93.3919 9.94603V9.96451L93.8046 11.804V11.8224C93.8764 12.1469 94.146 12.3091 94.4691 12.237L98.4021 11.3351C98.7257 11.263 98.8873 10.9922 98.8154 10.6677Z" fill="#FD5D3E"/>
<path d="M101.474 12.6522L101.457 12.6343L99.7683 11.8226L99.7505 11.8047C99.4453 11.6603 99.14 11.7683 99.0141 12.0749L97.2718 15.7185C97.1281 16.0251 97.2362 16.3317 97.5414 16.4581L97.5593 16.476L99.2475 17.2878L99.2653 17.3063C99.5706 17.45 99.8758 17.3421 100.002 17.0355L101.744 13.3918C101.869 13.1031 101.762 12.7966 101.474 12.6522Z" fill="#FD5D3E"/>
<path d="M104.668 11.8236L104.65 11.8415L102.962 12.6532L102.944 12.6711C102.639 12.8155 102.548 13.122 102.674 13.4292L104.434 17.0723C104.578 17.3794 104.883 17.4695 105.188 17.3431L105.206 17.3252L106.895 16.5134L106.912 16.4955C107.218 16.3512 107.308 16.0446 107.182 15.738L105.422 12.0944C105.26 11.7878 104.955 11.6792 104.668 11.8236Z" fill="#FD5D3E"/>
<path d="M105.998 8.77237V8.79027L105.584 10.6303V10.6482C105.512 10.9732 105.674 11.2434 105.998 11.3156L109.93 12.2174C110.254 12.2896 110.523 12.1274 110.595 11.8029V11.7844L111.008 9.94498V9.92708C111.08 9.60203 110.918 9.33183 110.595 9.25966L106.662 8.35725C106.357 8.28508 106.087 8.4479 105.998 8.77237Z" fill="#FD5D3E"/>
<path d="M104.473 5.8337L104.49 5.8516L105.658 7.33078L105.676 7.34867C105.873 7.60155 106.196 7.63735 106.466 7.43932L109.626 4.91398C109.878 4.71537 109.914 4.39089 109.717 4.12011L109.698 4.10222L108.531 2.62304L108.514 2.60514C108.316 2.35226 107.992 2.31646 107.723 2.5145L104.562 5.03984C104.311 5.25635 104.275 5.56292 104.473 5.8337Z" fill="#FD5D3E"/>
<path d="M0 4.03373H1.82796V11.8482L7.82287 4.03373H9.43872V14.709H7.63145V6.85236L1.63654 14.709H0V4.03373Z" fill="#2F3337"/>
<path d="M12.5254 4.03373H14.3534V8.432H20.1568V4.03373H21.9848V14.709H20.1568V10.0971H14.3534V14.709H12.5254V4.03373Z" fill="#2F3337"/>
<path d="M29.9186 14.9219C26.7093 14.9219 24.3496 12.4664 24.3496 9.37062C24.3496 6.27486 26.7093 3.81995 29.9186 3.81995C32.1081 3.81995 33.8935 4.97293 34.8288 6.68074L33.2348 7.57737C32.6392 6.3603 31.4499 5.52776 29.9186 5.52776C27.7083 5.52776 26.1988 7.23557 26.1988 9.37062C26.1988 11.5057 27.7083 13.2135 29.9186 13.2135C31.4499 13.2135 32.6392 12.3809 33.2348 11.1639L34.8288 12.0611C33.8935 13.7689 32.1081 14.9219 29.9186 14.9219Z" fill="#2F3337"/>
<path d="M39.2697 5.72075H35.8896V4.03373H44.6259V5.72075H41.0976V14.709H39.2697V5.72075Z" fill="#2F3337"/>
<path d="M46.416 4.03373H48.244V11.8482L54.2389 4.03373H55.8547V14.709H54.0475V6.85236L48.0526 14.709H46.416V4.03373Z" fill="#2F3337"/>
<path d="M61.0323 5.72075H57.6523V4.03373H66.3886V5.72075H62.8603V14.709H61.0323V5.72075Z" fill="#2F3337"/>
<path d="M73.0566 16.6089C72.1852 18.5516 71.1649 19.3848 69.5283 19.3848C69.0179 19.3848 68.6563 19.3628 68.3378 19.2774V17.655C68.6563 17.6977 68.9328 17.7191 69.3789 17.7191C70.102 17.7191 70.7182 17.3559 71.2925 16.0962L72.1639 14.218L67.4658 4.03352H69.4852L73.163 12.0824L76.7764 4.03352H78.817L73.0566 16.6089Z" fill="#2F3337"/>
<path d="M83.2521 5.72075H79.8721V4.03373H88.6083V5.72075H85.08V14.709H83.2521V5.72075Z" fill="#2F3337"/>
</svg>
